
<svg fill="#fff" version="1.1" xmlns="http://www.w3.org/2000/svg" xmlns:xlink="http://www.w3.org/1999/xlink" x="0px" y="0px" viewBox="0 0 1000 1000" enable-background="new 0 0 1000 1000" xml:space="preserve">
<g><g transform="translate(0.000000,511.000000) scale(0.100000,-0.100000)"><path d="M5889.3,4729.3v-290.6h1502.5h1505.4L6325.3,1866.6L3753.2-705.5l212.2-209.3l209.3-212.1l2572.1,2572.1l2572.1,2572.1V2511.8V1009.2h290.6H9900v2005.3v2005.3H7894.7H5889.3V4729.3z"/><path d="M527.2,3758.6c-159.8-72.7-319.7-235.4-383.6-392.4C105.8,3279,100,2747.2,100-473c0-3371.3,5.8-3752,49.4-3850.8c72.7-177.3,168.6-284.8,337.1-377.8l156.9-87.2l3632.9-8.7c1999.5-5.8,3699.7,0,3781.1,8.7c212.2,26.2,438.9,168.6,549.3,345.9l87.2,142.4l8.7,2511.1l5.8,2508.1h-290.6h-290.6v-2409.3c0-2153.6-5.8-2415.1-46.5-2455.8c-40.7-40.7-412.7-46.5-3673.6-46.5c-3260.9,0-3632.9,5.8-3673.5,46.5c-40.7,40.7-46.5,412.7-46.5,3673.6v3629.9l63.9,43.6c58.1,40.7,340,46.5,2455.8,46.5h2391.9v290.6v290.6H3137.1H672.5L527.2,3758.6z"/></g></g>
</svg>