<svg fill="#ffffff" data-name="Layer 2" viewBox="0 0 250 250" xmlns="http://www.w3.org/2000/svg"><title/><path d="M214.42,63.6A108.58,108.58,0,0,0,125,16.5H125A108.61,108.61,0,0,0,16.5,125a107.38,107.38,0,0,0,19.75,62.34L23.59,225.08a3,3,0,0,0,3.76,3.81l39.19-12.53a106.9,106.9,0,0,0,58.34,17.17,118.87,118.87,0,0,0,35.88-5.69A103.12,103.12,0,0,0,225.55,167C239.16,131.32,235.11,93.64,214.42,63.6ZM220,164.83a97.08,97.08,0,0,1-61,57.29c-31.79,10.07-63.86,6-90.3-11.55a3,3,0,0,0-1.66-.5,2.79,2.79,0,0,0-.91.14L31.16,221.37l11.27-33.58a3,3,0,0,0-.42-2.72A101.41,101.41,0,0,1,22.5,125,102.6,102.6,0,0,1,125,22.5H125A102.6,102.6,0,0,1,209.48,67C229,95.39,232.84,131.05,220,164.83Zm-34.54-16.42-1.75-.85c-.73-.37-18-9-21.3-10.11a8.83,8.83,0,0,0-11.07,3.36l-1.19,1.67a102.05,102.05,0,0,1-6.79,8.94c-1,1.07-2.79,1-4.1.46l-1-.4a73.71,73.71,0,0,1-22.92-14.33,89.82,89.82,0,0,1-16.52-20.54c-.64-1.11-.58-1.34.86-3l.12-.15c.83-1,1.65-1.89,2.52-2.81.66-.71,1.32-1.41,2-2.2l.28-.31a20.08,20.08,0,0,0,3.57-5.17c1.83-3.62.12-7.17-.44-8.32s-3.9-9.31-6.39-15.36c-1.17-2.85-2.26-5.49-3-7.34-2.42-5.79-4.84-6.85-9.32-7l-.3,0c-1,0-2.12-.11-3.38-.11-5.3,0-10,1.71-12.93,4.69l-.27.28C68.67,73.18,60.7,81.28,60.7,97.21c0,13.68,8.13,26.8,13,33.41l.18.23.57.82c15.28,22.13,34.17,38.65,53.19,46.53,16.88,7,25.84,8.86,32,8.86a30.67,30.67,0,0,0,6.73-.76c8.9-1.92,19.95-8.47,22.9-16.82h0c2.43-6.88,3.13-14.39,1.58-17.14C189.76,150.5,187.84,149.58,185.41,148.41Zm-1.82,19.07c-2.13,6-11.26,11.39-18.51,13-4.32.92-10.84,2.31-35.17-7.77-18-7.45-35.92-23.21-50.55-44.39l-.7-1-.15-.2C71,116.84,66.7,106,66.7,97.21c0-13.47,6.52-20.1,9.65-23.29l.29-.28c1.76-1.81,5-2.89,8.64-2.89,1.11,0,2.11,0,3.08.1l.33,0c2.49.11,2.7.11,4,3.36l3,7.31c3.5,8.49,6,14.58,6.53,15.67.7,1.44.84,2.35.49,3a.93.93,0,0,0,0,.1,14.1,14.1,0,0,1-2.69,3.83l-.28.32c-.62.72-1.23,1.37-1.84,2-.91,1-1.84,2-2.77,3.1l-.07.09c-1.5,1.77-4.3,5-1.46,10a95.61,95.61,0,0,0,17.7,22A80.33,80.33,0,0,0,136,157l.93.38a9.55,9.55,0,0,0,10.78-1.91A103.53,103.53,0,0,0,155,146l1.19-1.67c1.13-1.59,2.23-1.92,4.14-1.2,2.2.76,13.84,6.44,20.66,9.83l1.83.9a21.89,21.89,0,0,1,2.73,1.44C185.77,156.44,185.8,161.22,183.59,167.48Z"/></svg>