<svg fill="#ffffff" data-name="Layer 2" viewBox="0 0 250 250" xmlns="http://www.w3.org/2000/svg"><title/><path d="M160.12,62.83H179a7.41,7.41,0,0,0,7.4-7.41v-33A7.42,7.42,0,0,0,179,15h0l-28,0c-33.29,0-54.8,22-54.8,56.16V92.67H66.61a3,3,0,0,0-3,3V140a3,3,0,0,0,3,3H96.18v91a3,3,0,0,0,3,3h45.55a3,3,0,0,0,3-3V143h29.93a7.41,7.41,0,0,0,7.4-7.4l0-35.52a7.41,7.41,0,0,0-7.41-7.4H147.73V74.89C147.73,66.51,148.9,62.83,160.12,62.83ZM144.73,98.67h32.94a1.45,1.45,0,0,1,1,.41,1.43,1.43,0,0,1,.41,1l0,35.51a1.41,1.41,0,0,1-1.4,1.41H144.73a3,3,0,0,0-3,3v91H102.18V140a3,3,0,0,0-3-3H69.61V98.67H99.18a3,3,0,0,0,3-3V71.16C102.18,40.69,121.33,21,151,21l28,0a1.42,1.42,0,0,1,1.4,1.41v33a1.41,1.41,0,0,1-1.4,1.41H160.12c-15.26,0-18.39,7.22-18.39,18.06V95.67A3,3,0,0,0,144.73,98.67Z"/></svg>